PathFileType	4	(X/Y/Z)	/Users/itak/Documents/Research/Walk-IL/dataset/trc/00559_00009.trc
DataRate	CameraRate	NumFrames	NumMarkers	Units	OrigDataRate	OrigDataStartFrame	OrigNumFrames
100.000000	100.000000	4	53	mm	100.000000	126	337
Frame#	Time	RPSI			LPSI			L3			STRN			T10			C7			CLAV			RBAK			LBAK			LSHO			LUPA			LAEL			LAOL			LWTS			LWPS			LFRA			LIFD			LHPS			LHTS			RSHO			RUPA			RAEL			RAOL			RWTS			RWPS			RFRA			RIFD			RHTS			RHPS			RBHD			LFHD			RFHD			LBHD			LHIP			RHIP			RASI			LASI			LKNE			LTHI			LANK			LTIP			LTOE			LMT1			LMT5			LHEE			RKNE			RTHI			RANK			RTIP			RTOE			RMT1			RMT5			RHEE			
		X1	Y1	Z1	X2	Y2	Z2	X3	Y3	Z3	X4	Y4	Z4	X5	Y5	Z5	X6	Y6	Z6	X7	Y7	Z7	X8	Y8	Z8	X9	Y9	Z9	X10	Y10	Z10	X11	Y11	Z11	X12	Y12	Z12	X13	Y13	Z13	X14	Y14	Z14	X15	Y15	Z15	X16	Y16	Z16	X17	Y17	Z17	X18	Y18	Z18	X19	Y19	Z19	X20	Y20	Z20	X21	Y21	Z21	X22	Y22	Z22	X23	Y23	Z23	X24	Y24	Z24	X25	Y25	Z25	X26	Y26	Z26	X27	Y27	Z27	X28	Y28	Z28	X29	Y29	Z29	X30	Y30	Z30	X31	Y31	Z31	X32	Y32	Z32	X33	Y33	Z33	X34	Y34	Z34	X35	Y35	Z35	X36	Y36	Z36	X37	Y37	Z37	X38	Y38	Z38	X39	Y39	Z39	X40	Y40	Z40	X41	Y41	Z41	X42	Y42	Z42	X43	Y43	Z43	X44	Y44	Z44	X45	Y45	Z45	X46	Y46	Z46	X47	Y47	Z47	X48	Y48	Z48	X49	Y49	Z49	X50	Y50	Z50	X51	Y51	Z51	X52	Y52	Z52	X53	Y53	Z53	

127	1.26	-1019.900512695312	956.2913818359375	-82.70207977294922	-975.1099853515625	953.9668579101562	-209.3554382324219	-953.8031005859375	1061.210327148438	-134.5249938964844	-665.102294921875	1147.7314453125	-51.70801162719727	-912.151611328125	1180.528686523438	-115.4393005371094	-768.1364135742188	1411.017578125	-42.35962677001953	-642.44091796875	1255.582153320312	-36.53886795043945	-892.4950561523438	1317.14990234375	13.27885818481445	-795.1818237304688	1382.926879882812	-146.7645721435547	-674.2191162109375	1377.5166015625	-199.8139190673828	-707.1534423828125	1275.773071289062	-303.3379516601562	-766.5089721679688	1078.774536132812	-369.943359375	-865.3786010742188	1092.7451171875	-346.0946655273438	-710.88671875	840.9720458984375	-292.4447937011719	-734.1270751953125	813.4022827148438	-371.4682006835938	-752.118896484375	993.22802734375	-372.379638671875	-715.8145751953125	672.5282592773438	-284.8840942382812	-725.5007934570312	755.1973876953125	-358.9193115234375	-687.4522094726562	765.1435546875	-303.3372802734375	-755.06689453125	1345.56787109375	114.407844543457	-804.5458374023438	1290.087524414062	171.4953002929688	-902.5966796875	1017.966857910156	205.9657592773438	-956.5750122070312	1012.731628417969	172.9518585205078	-784.0573120117188	792.54638671875	170.0767517089844	-844.4268188476562	771.15673828125	223.6408386230469	-902.0980224609375	961.1981201171875	210.5978546142578	-777.3496704101562	625.3187255859375	172.7628631591797	-757.57568359375	704.3085327148438	195.0557098388672	-824.7306518554688	700.1610107421875	230.0058746337891	-663.7551879882812	1544.48046875	59.81187057495117	-484.0010986328125	1523.4287109375	-42.36763000488281	-529.9073486328125	1518.572143554688	94.00894165039062	-605.1074829101562	1546.32421875	-94.91609954833984	-823.7977294921875	849.28515625	-294.5642700195312	-943.1505126953125	876.8113403320312	68.7562255859375	-842.947265625	893.3081665039062	39.45139694213867	-767.6449584960938	864.78759765625	-222.3589630126953	-742.9287109375	401.8947448730469	-203.8080902099609	-762.3897094726562	571.6304931640625	-245.9893341064453	-1171.927612304688	225.8382720947266	-357.9368896484375	-964.6053466796875	311.4925842285156	-287.3058471679688	-1091.14306640625	47.59335708618164	-266.7430419921875	-1132.6416015625	111.6820068359375	-243.0279846191406	-1120.209838867188	115.7954177856445	-349.2243957519531	-1213.71826171875	290.0957946777344	-319.681640625	-766.669921875	459.6771545410156	79.47270965576172	-874.190673828125	735.8016357421875	93.37766265869141	-981.3368530273438	34.07167816162109	-13.95964050292969	-790.3065795898438	311.8818359375	52.98824691772461	-756.2365112304688	39.30128860473633	16.27346611022949	-802.9357299804688	39.4371337890625	-43.79422760009766	-858.88232421875	38.3453483581543	45.89978408813477	-1013.883605957031	22.53434181213379	-85.07245635986328	
128	1.27	-1007.214050292969	955.9642333984375	-78.41055297851562	-961.8953857421875	952.6307373046875	-204.8949890136719	-941.0437622070312	1060.22509765625	-129.2560882568359	-651.3162231445312	1146.181762695312	-47.01486206054688	-898.7796020507812	1179.417846679688	-109.3845291137695	-754.1937866210938	1409.58154296875	-35.36958694458008	-628.3923950195312	1253.885620117188	-31.58852577209473	-878.1685180664062	1315.13037109375	20.61009979248047	-781.823486328125	1381.752685546875	-139.6084899902344	-661.4530029296875	1376.6923828125	-193.8757476806641	-696.4805908203125	1276.532348632812	-298.2483215332031	-759.4566040039062	1081.928833007812	-367.7109069824219	-857.7503662109375	1096.488159179688	-341.9000244140625	-704.2269287109375	842.9347534179688	-294.36572265625	-729.2036743164062	816.2263793945312	-373.173095703125	-745.8355712890625	996.2845458984375	-371.6162719726562	-710.9818725585938	674.0436401367188	-287.8629150390625	-720.8374633789062	757.821533203125	-361.219970703125	-681.5001831054688	767.1460571289062	-306.4114074707031	-739.9115600585938	1343.187744140625	120.8302459716797	-788.293701171875	1287.253662109375	178.4575347900391	-881.44140625	1013.627258300781	214.3150939941406	-935.7091674804688	1007.275817871094	182.0967712402344	-759.4054565429688	790.6566772460938	175.92626953125	-817.9869384765625	768.00146484375	230.8146057128906	-879.6262817382812	956.8295288085938	218.8610992431641	-748.389404296875	623.7957153320312	178.5072479248047	-730.2188110351562	703.267822265625	200.357421875	-796.4945068359375	697.4190673828125	236.5605773925781	-649.6491088867188	1542.703979492188	66.51653289794922	-470.1328125	1522.238647460938	-36.15409469604492	-515.6858520507812	1517.00634765625	100.3593673706055	-591.3735961914062	1545.025512695312	-88.34506225585938	-809.4783325195312	848.4686279296875	-289.0029296875	-931.798828125	876.26611328125	73.68295288085938	-831.02490234375	892.5130004882812	44.98865509033203	-754.0689086914062	864.0897216796875	-216.3620452880859	-707.6885375976562	407.2303161621094	-192.5322570800781	-736.2813110351562	574.9581909179688	-237.8840179443359	-1136.277465820312	229.6811065673828	-342.4948425292969	-929.2730712890625	315.5422973632812	-273.5707092285156	-1051.487915039062	51.75872421264648	-253.4862213134766	-1093.998046875	115.2410736083984	-228.9691467285156	-1081.959106445312	121.0786209106445	-335.1476440429688	-1179.691528320312	291.9830017089844	-303.4926452636719	-761.7826538085938	456.1533203125	83.09122467041016	-864.8182373046875	734.072509765625	98.44659423828125	-981.3170776367188	34.08221054077148	-13.93769073486328	-787.2684326171875	308.868408203125	55.55329132080078	-756.2694702148438	39.2502326965332	16.71302604675293	-803.022705078125	39.60111618041992	-43.38557052612305	-859.044921875	38.11981582641602	46.39987945556641	-1013.740478515625	22.78585624694824	-85.19950866699219	
129	1.28	-994.2945556640625	955.645263671875	-74.05411529541016	-948.4224243164062	951.3955688476562	-200.3462982177734	-928.1196899414062	1059.2490234375	-123.945182800293	-637.4503784179688	1144.6943359375	-42.30804443359375	-885.269287109375	1178.271850585938	-103.3235473632812	-740.217529296875	1408.201416015625	-28.51446914672852	-614.27197265625	1252.2841796875	-26.73816299438477	-863.7906494140625	1313.090087890625	27.78792762756348	-768.471435546875	1380.594360351562	-132.5653839111328	-648.7321166992188	1375.940307617188	-188.1074371337891	-685.8615112304688	1277.36279296875	-293.2552795410156	-752.1226196289062	1085.135131835938	-365.365966796875	-849.8626708984375	1100.10205078125	-337.7275695800781	-696.9884643554688	845.23486328125	-295.9825134277344	-723.7054443359375	819.2362670898438	-374.4732055664062	-739.175537109375	999.4401245117188	-370.652099609375	-704.7661743164062	676.2606811523438	-290.4474792480469	-715.4380493164062	760.6767578125	-363.0399475097656	-674.8033447265625	769.55029296875	-309.1004333496094	-724.7202758789062	1340.913696289062	127.1302719116211	-772.0115356445312	1284.51171875	185.2635650634766	-859.975341796875	1009.434265136719	222.4514465332031	-914.5475463867188	1001.944152832031	191.0738372802734	-734.676025390625	788.927978515625	181.5690155029297	-791.2960815429688	765.1328735351562	237.8166961669922	-856.8436889648438	952.6714477539062	226.9785919189453	-719.3054809570312	622.5242309570312	184.1071014404297	-702.791259765625	702.4671020507812	205.5023956298828	-768.0775756835938	695.0445556640625	242.9658660888672	-635.408203125	1541.079956054688	73.00943756103516	-456.1615600585938	1521.142700195312	-30.17970085144043	-501.3492431640625	1515.554931640625	106.4907913208008	-577.5439453125	1543.81689453125	-82.0028076171875	-795.0220336914062	847.9153442382812	-283.460205078125	-920.29296875	875.6239624023438	78.64061737060547	-818.9234008789062	891.5880737304688	50.61022567749023	-740.2101440429688	863.4419555664062	-210.3522338867188	-672.832275390625	414.0401306152344	-181.6827545166016	-710.4920043945312	579.2383422851562	-230.02001953125	-1099.576049804688	230.3481292724609	-325.9965515136719	-893.7589111328125	318.9864196777344	-259.6444702148438	-1007.83837890625	55.23324203491211	-239.2756805419922	-1052.24267578125	116.8988800048828	-213.8867492675781	-1041.137573242188	124.2504959106445	-320.0363464355469	-1145.173095703125	290.1997375488281	-286.1567687988281	-757.1480712890625	452.5652465820312	86.72618103027344	-855.4506225585938	732.2332153320312	103.4709014892578	-981.2525634765625	34.11912155151367	-13.98297691345215	-784.3980712890625	305.834228515625	58.13242721557617	-756.3096313476562	39.19976425170898	17.1851978302002	-803.1026000976562	39.76125717163086	-42.97651290893555	-859.2212524414062	37.89631652832031	46.91867446899414	-1013.5634765625	23.0487174987793	-85.37924194335938	
130	1.29	-981.0755004882812	955.4083862304688	-69.62570953369141	-934.646240234375	950.3261108398438	-195.6994781494141	-914.9487915039062	1058.369995117188	-118.6225738525391	-623.4834594726562	1143.387084960938	-37.55990219116211	-871.5762939453125	1177.183227539062	-97.25824737548828	-726.1869506835938	1406.9658203125	-21.77615165710449	-600.0513916015625	1250.900024414062	-21.96697425842285	-849.3064575195312	1311.125610351562	34.84186935424805	-755.1029052734375	1379.554443359375	-125.6142501831055	-636.0230102539062	1375.395263671875	-182.4659576416016	-675.2376708984375	1278.399658203125	-288.3158874511719	-744.4342041015625	1088.463989257812	-362.7887573242188	-841.6411743164062	1103.650512695312	-333.4388122558594	-689.103515625	847.8629150390625	-297.229736328125	-717.5372924804688	822.4874267578125	-375.3371276855469	-732.0506591796875	1002.761352539062	-369.3950805664062	-697.2330322265625	679.1036376953125	-292.6828918457031	-709.21630859375	763.810546875	-364.4013671875	-667.3217163085938	772.329345703125	-311.378662109375	-709.435302734375	1338.849853515625	133.3274230957031	-755.6405639648438	1281.959228515625	191.9178924560547	-838.238525390625	1005.521606445312	230.3090972900391	-893.1279296875	996.9028930664062	199.801513671875	-709.9086303710938	787.4467163085938	186.995849609375	-764.4584350585938	762.6732788085938	244.6093139648438	-833.8203125	948.8638916015625	234.8975982666016	-690.2854614257812	621.5704345703125	189.5731506347656	-675.4221801757812	701.9588623046875	210.479248046875	-739.6165161132812	693.1461791992188	249.2277374267578	-621.0199584960938	1539.694946289062	79.29979705810547	-442.0636291503906	1520.208618164062	-24.42886543273926	-486.8768310546875	1514.2900390625	112.4114151000977	-563.5996704101562	1542.779052734375	-75.87700653076172	-780.3504638671875	847.6536865234375	-277.8794250488281	-908.5679321289062	874.982666015625	83.63859558105469	-806.6029052734375	890.636962890625	56.35896301269531	-726.0557250976562	862.9151000976562	-204.2629699707031	-638.5442504882812	422.1540832519531	-171.2582702636719	-685.0778198242188	584.3768310546875	-222.3653106689453	-1061.81884765625	227.9163055419922	-308.6798095703125	-858.0755615234375	321.7193908691406	-245.6235961914062	-960.8262329101562	57.90755844116211	-224.068603515625	-1007.827697753906	116.7928161621094	-197.8609008789062	-998.0813598632812	125.3109130859375	-303.9906005859375	-1109.985717773438	284.9430541992188	-268.0092163085938	-752.7384033203125	448.9659118652344	90.25748443603516	-846.0302734375	730.3662719726562	108.4358901977539	-981.1488037109375	34.17366790771484	-14.09546279907227	-781.6776733398438	302.8124084472656	60.61185455322266	-756.34912109375	39.15325164794922	17.65342330932617	-803.1751098632812	39.90436172485352	-42.58968734741211	-859.4065551757812	37.68622970581055	47.43315505981445	-1013.363830566406	23.30140113830566	-85.59787750244141	
